<svg xmlns="http://www.w3.org/2000/svg" width="816" height="196" viewBox="0 0 816 196">
  <metadata><?xpacket begin="﻿" id="W5M0MpCehiHzreSzNTczkc9d"?>
<x:xmpmeta xmlns:x="adobe:ns:meta/" x:xmptk="Adobe XMP Core 5.6-c142 79.160924, 2017/07/13-01:06:39        ">
   <rdf:RDF xmlns:rdf="http://www.w3.org/1999/02/22-rdf-syntax-ns#">
      <rdf:Description rdf:about=""/>
   </rdf:RDF>
</x:xmpmeta>
                                                                                                    
                                                                                                    
                                                                                                    
                                                                                                    
                                                                                                    
                                                                                                    
                                                                                                    
                                                                                                    
                                                                                                    
                                                                                                    
                                                                                                    
                                                                                                    
                                                                                                    
                                                                                                    
                                                                                                    
                                                                                                    
                                                                                                    
                                                                                                    
                                                                                                    
                                                                                                    
                           
<?xpacket end="w"?></metadata>
<defs>
    <style>
      .cls-1 {
        opacity: 0.7;
      }

      .cls-2 {
        fill: #fff;
        fill-rule: evenodd;
      }
    </style>
  </defs>
  <g id="Icons" class="cls-1">
    <path id="connect-point" class="cls-2" d="M398.5,336A25.5,25.5,0,1,0,424,361.5,25.5,25.5,0,0,0,398.5,336Zm0,47.015A21.516,21.516,0,1,1,420.016,361.5,21.515,21.515,0,0,1,398.5,383.015Zm9.563-34.265a3.187,3.187,0,0,0-3.188,3.187,3.123,3.123,0,0,0,.053.517L391,359.087a3.182,3.182,0,1,0-.246,5.027l6.469,5.585a3.153,3.153,0,0,0-.318,1.363,3.188,3.188,0,1,0,3.188-3.187,3.148,3.148,0,0,0-1.849.6l-6.456-5.575a3.061,3.061,0,0,0,.134-2.488l13.654-6.5A3.182,3.182,0,1,0,408.063,348.75ZM387.344,361.5a1.594,1.594,0,1,1,1.594,1.594A1.6,1.6,0,0,1,387.344,361.5Zm12.75,7.968a1.594,1.594,0,1,1-1.594,1.594A1.6,1.6,0,0,1,400.094,369.468Zm7.969-15.937a1.594,1.594,0,1,1,1.593-1.594A1.6,1.6,0,0,1,408.063,353.531Z" transform="translate(-373 -284)"/>
    <path id="cloud" class="cls-2" d="M1155.43,455.7a6.387,6.387,0,0,0,.94-3.324,6.481,6.481,0,0,0-12.73-1.739,4.866,4.866,0,0,0-8.39,3.364,4.793,4.793,0,0,0,.31,1.656c-0.1-.009-0.21-0.031-0.31-0.031-1.79,0-3.25,2.268-3.25,4.062s1.46,4.063,3.25,4.063h19.5c1.79,0,3.25-2.268,3.25-4.063C1158,458.127,1156.9,456.014,1155.43,455.7ZM1145,428a26,26,0,1,0,26,26A26,26,0,0,0,1145,428Zm0,47.937A21.938,21.938,0,1,1,1166.94,454,21.936,21.936,0,0,1,1145,475.937Z" transform="translate(-373 -284)"/>
    <path id="text-horizontal" class="cls-2" d="M1096.5,284a22.5,22.5,0,1,0,22.5,22.5A22.5,22.5,0,0,0,1096.5,284Zm0,41.484a18.984,18.984,0,1,1,18.98-18.984A18.977,18.977,0,0,1,1096.5,325.484Zm8.21-30.234,0.23,3.958h-0.57a4.177,4.177,0,0,0-.44-1.494,2.825,2.825,0,0,0-1.22-1.063,4.975,4.975,0,0,0-2.01-.344h-2.83V309.2a3.054,3.054,0,0,0,.39,1.942,2.507,2.507,0,0,0,1.74.523h0.7v0.46h-8.53v-0.46h0.71a2.232,2.232,0,0,0,1.81-.648,3.213,3.213,0,0,0,.33-1.817V296.307h-2.42a7.871,7.871,0,0,0-2,.175,2.662,2.662,0,0,0-1.32.907,3.257,3.257,0,0,0-.65,1.819h-0.57l0.24-3.958h16.41Zm0.23,20.39-2.82-2.109v1.406h-11.25v-1.406l-2.81,2.109,2.81,2.11v-1.406h11.25v1.406Z" transform="translate(-373 -284)"/>
    <path id="lamp" class="cls-2" d="M476.5,380A28.5,28.5,0,1,0,505,408.5,28.5,28.5,0,0,0,476.5,380Zm0,52.547A24.047,24.047,0,1,1,500.547,408.5,24.047,24.047,0,0,1,476.5,432.547Zm0-9.8a3.563,3.563,0,0,0,3.562-3.563h-7.125A3.563,3.563,0,0,0,476.5,422.75Zm0-28.5a10.68,10.68,0,0,0-4.717,20.265l1.154,2.891h7.125l1.155-2.891A10.68,10.68,0,0,0,476.5,394.25Z" transform="translate(-373 -284)"/>
    <path id="globe-wire" class="cls-2" d="M507.5,293A22.5,22.5,0,1,0,530,315.5,22.5,22.5,0,0,0,507.5,293Zm0,41.484A18.985,18.985,0,1,1,526.484,315.5,18.983,18.983,0,0,1,507.5,334.484Zm0-30.234a11.25,11.25,0,1,0,11.25,11.25A11.25,11.25,0,0,0,507.5,304.25ZM497.692,316.2h5.037a28.368,28.368,0,0,0,.576,4.219h-4.317A9.752,9.752,0,0,1,497.692,316.2Zm5.037-1.406h-5.037a9.752,9.752,0,0,1,1.3-4.219h4.317A28.368,28.368,0,0,0,502.729,314.8Zm1.983-4.219h5.576a28.443,28.443,0,0,1,.577,4.219h-6.73A28.443,28.443,0,0,1,504.712,310.578Zm-0.577,5.625h6.73a28.479,28.479,0,0,1-.577,4.219h-5.576A28.479,28.479,0,0,1,504.135,316.2Zm8.136,0h5.037a9.752,9.752,0,0,1-1.3,4.219H511.7A28.237,28.237,0,0,0,512.271,316.2Zm0-1.406a28.237,28.237,0,0,0-.576-4.219h4.317a9.752,9.752,0,0,1,1.3,4.219h-5.037Zm2.759-5.625h-3.646c-0.3-1.247-.6-2.318-0.806-3.016A9.875,9.875,0,0,1,515.03,309.172Zm-5.97-3.38c0.2,0.647.563,1.888,0.916,3.38h-4.952c0.353-1.492.717-2.733,0.916-3.38A9.015,9.015,0,0,1,509.06,305.792Zm-4.636.364c-0.209.7-.513,1.769-0.808,3.016h-3.644A9.843,9.843,0,0,1,504.424,306.156Zm-4.452,15.672h3.644c0.3,1.247.6,2.318,0.806,3.016A9.866,9.866,0,0,1,499.972,321.828Zm5.968,3.38c-0.2-.647-0.563-1.889-0.916-3.38h4.952c-0.353,1.49-.715,2.733-0.915,3.38A9.021,9.021,0,0,1,505.94,325.208Zm4.638-.364c0.21-.7.512-1.769,0.807-3.016h3.643A9.882,9.882,0,0,1,510.578,324.844Z" transform="translate(-373 -284)"/>
    <path id="layers" class="cls-2" d="M1163.5,339a25.5,25.5,0,1,0,25.5,25.5A25.5,25.5,0,0,0,1163.5,339Zm0,47.016a21.516,21.516,0,1,1,21.52-21.516A21.521,21.521,0,0,1,1163.5,386.016Zm0-11.633-10.46-6.534-2.29,1.432,12.75,7.969,12.75-7.944-2.29-1.438Zm0-4.817-10.4-6.5-2.35,1.47,12.75,7.969,12.75-7.944-2.35-1.476Zm-12.75-9.847,12.75,7.968,12.75-7.944-12.75-7.993Z" transform="translate(-373 -284)"/>
  </g>
</svg>
