<svg xmlns="http://www.w3.org/2000/svg" width="25" height="25" viewBox="0 0 25 25">
  <metadata><?xpacket begin="﻿" id="W5M0MpCehiHzreSzNTczkc9d"?>
<x:xmpmeta xmlns:x="adobe:ns:meta/" x:xmptk="Adobe XMP Core 5.6-c142 79.160924, 2017/07/13-01:06:39        ">
   <rdf:RDF xmlns:rdf="http://www.w3.org/1999/02/22-rdf-syntax-ns#">
      <rdf:Description rdf:about=""/>
   </rdf:RDF>
</x:xmpmeta>
                                                                                                    
                                                                                                    
                                                                                                    
                                                                                                    
                                                                                                    
                                                                                                    
                                                                                                    
                                                                                                    
                                                                                                    
                                                                                                    
                                                                                                    
                                                                                                    
                                                                                                    
                                                                                                    
                                                                                                    
                                                                                                    
                                                                                                    
                                                                                                    
                                                                                                    
                                                                                                    
                           
<?xpacket end="w"?></metadata>
<defs>
    <style>
      .cls-1 {
        fill: #bcbcc4;
        fill-rule: evenodd;
      }
    </style>
  </defs>
  <path id="twitter" class="cls-1" d="M395.5,3158a12.5,12.5,0,1,0,12.5,12.5A12.5,12.5,0,0,0,395.5,3158Zm0,23.05a10.55,10.55,0,1,1,10.547-10.55A10.553,10.553,0,0,1,395.5,3181.05Zm6.25-14.7a4.376,4.376,0,0,1-1.431.43,2.945,2.945,0,0,0,1.075-1.51,4,4,0,0,1-1.609.62h0a2.484,2.484,0,0,0-1.864-.86,2.682,2.682,0,0,0-2.579,2.78,3.034,3.034,0,0,0,.066.62h0a7.29,7.29,0,0,1-5.463-2.88,2.9,2.9,0,0,0,.782,3.66,1.526,1.526,0,0,1-1.126-.31,2.647,2.647,0,0,0,1.989,2.71,1.847,1.847,0,0,1-1.074.09,2.485,2.485,0,0,0,2.305,1.89,4.051,4.051,0,0,1-3.571,1.15,7.322,7.322,0,0,0,4.034,1.23c4.16,0,7.391-3.63,7.217-8.11,0-.01,0-0.01,0-0.02s0-.02,0-0.03,0-.03,0-0.04A4.663,4.663,0,0,0,401.75,3166.35Z" transform="translate(-383 -3158)"/>
</svg>
